<svg width="27" height="27" viewBox="0 0 27 27" fill="none" xmlns="http://www.w3.org/2000/svg">
<path d="M19.125 1.25H7.125C3.81129 1.25 1.125 3.93629 1.125 7.25V19.25C1.125 22.5637 3.81129 25.25 7.125 25.25H19.125C22.4387 25.25 25.125 22.5637 25.125 19.25V7.25C25.125 3.93629 22.4387 1.25 19.125 1.25Z" stroke="white" stroke-width="2" stroke-linecap="round" stroke-linejoin="round"/>
<path d="M19.725 6.6499H19.737M17.925 12.4939C18.0731 13.4926 17.9025 14.5126 17.4375 15.4087C16.9725 16.3049 16.2368 17.0316 15.3349 17.4855C14.4331 17.9394 13.4111 18.0974 12.4143 17.937C11.4175 17.7766 10.4967 17.306 9.7828 16.5921C9.06889 15.8782 8.59827 14.9574 8.43787 13.9606C8.27748 12.9638 8.43547 11.9418 8.88938 11.04C9.3433 10.1381 10.07 9.40239 10.9662 8.93739C11.8623 8.47239 12.8823 8.30181 13.881 8.4499C14.8997 8.60096 15.8428 9.07566 16.571 9.80387C17.2992 10.5321 17.7739 11.4752 17.925 12.4939Z" stroke="white" stroke-width="2" stroke-linecap="round" stroke-linejoin="round"/>
</svg>
