<svg width="16" height="20" viewBox="0 0 16 20" fill="none" xmlns="http://www.w3.org/2000/svg">
<path d="M1.571 5.88696C1.2845 3.99996 2.615 2.30496 4.6475 1.68396C5.00819 1.57443 5.39704 1.60617 5.73519 1.77274C6.07335 1.93931 6.3355 2.22825 6.4685 2.58096L7.121 4.32096C7.22604 4.60088 7.24503 4.9058 7.17554 5.1966C7.10605 5.48739 6.95125 5.75078 6.731 5.95296L4.79 7.73046C4.6942 7.81817 4.62283 7.92926 4.58286 8.05284C4.54289 8.17642 4.5357 8.30827 4.562 8.43546L4.58 8.51346L4.6265 8.70846C4.86849 9.65573 5.23626 10.5663 5.72 11.416C6.24818 12.3181 6.90283 13.1399 7.664 13.8565L7.724 13.9105C7.8209 13.9965 7.93843 14.0559 8.06514 14.083C8.19184 14.1101 8.32341 14.1039 8.447 14.065L10.9565 13.2745C11.2417 13.1849 11.5471 13.1826 11.8337 13.2679C12.1202 13.3531 12.3747 13.5221 12.5645 13.753L13.7525 15.1945C14.2475 15.7945 14.1875 16.6765 13.619 17.206C12.0635 18.6565 9.9245 18.9535 8.4365 17.758C6.61177 16.2875 5.07403 14.4929 3.9005 12.4645C2.71548 10.4387 1.92607 8.20689 1.571 5.88696ZM6.134 8.53446L7.742 7.05846C8.18275 6.65427 8.49265 6.12756 8.6319 5.54597C8.77115 4.96438 8.7334 4.35444 8.5235 3.79446L7.8725 2.05446C7.60543 1.34462 7.07817 0.763054 6.39782 0.427895C5.71747 0.0927359 4.93505 0.0291174 4.2095 0.249962C1.685 1.02246 -0.341502 3.28596 0.0874983 6.11346C0.387498 8.08746 1.079 10.5985 2.6045 13.2205C3.87067 15.4076 5.52942 17.3425 7.4975 18.928C9.7295 20.7205 12.7085 20.1085 14.6435 18.3055C15.1972 17.7899 15.5332 17.0826 15.5831 16.3277C15.633 15.5728 15.393 14.8274 14.912 14.2435L13.724 12.8005C13.344 12.3392 12.8348 12.0019 12.2618 11.832C11.6888 11.662 11.0781 11.667 10.508 11.8465L8.4245 12.502C7.88651 11.9473 7.41531 11.3317 7.0205 10.6675C6.63952 9.99579 6.3423 9.27995 6.1355 8.53596" fill="white"/>
</svg>
