<svg width="36" height="25" viewBox="0 0 36 25" fill="none" xmlns="http://www.w3.org/2000/svg">
<path fill-rule="evenodd" clip-rule="evenodd" d="M14.8998 6.34334C14.7077 6.23258 14.4884 6.17277 14.2643 6.17002C14.0401 6.16727 13.8193 6.22168 13.6243 6.32768C13.4292 6.43369 13.267 6.5875 13.1541 6.7734C13.0412 6.95931 12.9817 7.17066 12.9817 7.38586V17.1139C12.9817 17.3291 13.0412 17.5405 13.1541 17.7264C13.267 17.9123 13.4292 18.0661 13.6243 18.1721C13.8193 18.2781 14.0401 18.3325 14.2643 18.3298C14.4884 18.327 14.7077 18.2672 14.8998 18.1564L23.3425 13.2924C23.5299 13.1844 23.685 13.0315 23.7927 12.8489C23.9004 12.6662 23.957 12.4598 23.957 12.2499C23.957 12.04 23.9004 11.8336 23.7927 11.6509C23.685 11.4682 23.5299 11.3154 23.3425 11.2074L14.8998 6.34334ZM20.2288 12.2499L15.5145 14.9656V9.53414L20.2288 12.2499Z" fill="white"/>
<path fill-rule="evenodd" clip-rule="evenodd" d="M26.1184 0.318481C20.4649 -0.10616 14.7854 -0.10616 9.13186 0.318481L5.34788 0.603837C4.2298 0.687525 3.17304 1.12806 2.34592 1.85528C1.5188 2.5825 0.968896 3.55457 0.783804 4.61666C-0.0946015 9.67057 -0.0946015 14.8293 0.783804 19.8832C0.968896 20.9453 1.5188 21.9174 2.34592 22.6446C3.17304 23.3718 4.2298 23.8124 5.34788 23.8961L9.13018 24.1814C14.785 24.6062 20.4652 24.6062 26.1201 24.1814L29.9024 23.8961C31.0205 23.8124 32.0772 23.3718 32.9044 22.6446C33.7315 21.9174 34.2814 20.9453 34.4665 19.8832C35.3445 14.8295 35.3445 9.67039 34.4665 4.61666C34.2814 3.55457 33.7315 2.5825 32.9044 1.85528C32.0772 1.12806 31.0205 0.687525 29.9024 0.603837L26.1184 0.318481ZM9.32942 2.74401C14.8526 2.32908 20.4011 2.32908 25.9242 2.74401L29.7065 3.02775C30.848 3.11368 31.7817 3.9357 31.9692 5.01875C32.8042 9.80621 32.8042 14.6937 31.9692 19.4811C31.8777 20.0079 31.6052 20.4902 31.1952 20.851C30.7851 21.2119 30.261 21.4305 29.7065 21.4721L25.9242 21.7559C20.4011 22.1708 14.8526 22.1708 9.32942 21.7559L5.54713 21.4721C4.99261 21.4305 4.46856 21.2119 4.05849 20.851C3.64843 20.4902 3.37596 20.0079 3.28451 19.4811C2.44945 14.6937 2.44945 9.80621 3.28451 5.01875C3.37596 4.49194 3.64843 4.00969 4.05849 3.64885C4.46856 3.28801 4.99261 3.06936 5.54713 3.02775L9.32942 2.74401Z" fill="white"/>
</svg>
