<svg width="27" height="27" viewBox="0 0 27 27" fill="none" xmlns="http://www.w3.org/2000/svg">
<path d="M1.375 23.4038V3.09615C1.375 2.60652 1.5695 2.13695 1.91573 1.79073C2.26195 1.4445 2.73152 1.25 3.22115 1.25H23.5288C24.0185 1.25 24.4881 1.4445 24.8343 1.79073C25.1805 2.13695 25.375 2.60652 25.375 3.09615V23.4038C25.375 23.8935 25.1805 24.3631 24.8343 24.7093C24.4881 25.0555 24.0185 25.25 23.5288 25.25H17.9904V16.4992H19.3012C19.5998 16.4992 19.8863 16.3806 20.0975 16.1694C20.3087 15.9582 20.4273 15.6718 20.4273 15.3731V13.9515C20.4273 13.6529 20.3087 13.3664 20.0975 13.1552C19.8863 12.944 19.5998 12.8254 19.3012 12.8254H18.0642V11.09C18.0642 9.53923 18.7658 9.53923 19.4673 9.53923H20.3719C20.5205 9.54535 20.6686 9.51876 20.8058 9.46134C20.943 9.40392 21.0659 9.31707 21.1658 9.20692C21.2731 9.10478 21.358 8.9815 21.4152 8.84485C21.4724 8.70821 21.5006 8.56119 21.4981 8.41308V7.04692C21.503 6.89659 21.4783 6.74676 21.4252 6.606C21.3722 6.46524 21.292 6.33631 21.1891 6.22657C21.0862 6.11684 20.9627 6.02846 20.8257 5.96649C20.6886 5.90451 20.5407 5.87016 20.3904 5.86538H18.2673C17.6478 5.8421 17.0307 5.95356 16.4585 6.19207C15.8863 6.43059 15.3727 6.79047 14.9531 7.24687C14.5336 7.70326 14.2182 8.24528 14.0286 8.8355C13.839 9.42571 13.7797 10.05 13.855 10.6654V12.8254H12.6735C12.524 12.8229 12.3756 12.8503 12.2368 12.9058C12.0981 12.9612 11.9717 13.0438 11.8652 13.1486C11.7587 13.2534 11.674 13.3784 11.6163 13.5163C11.5586 13.6541 11.5288 13.8021 11.5288 13.9515V15.3731C11.5288 15.5225 11.5586 15.6705 11.6163 15.8083C11.674 15.9462 11.7587 16.0712 11.8652 16.176C11.9717 16.2808 12.0981 16.3634 12.2368 16.4189C12.3756 16.4744 12.524 16.5017 12.6735 16.4992H13.855V25.25H3.22115C2.73152 25.25 2.26195 25.0555 1.91573 24.7093C1.5695 24.3631 1.375 23.8935 1.375 23.4038Z" stroke="white" stroke-width="2" stroke-linecap="round" stroke-linejoin="round"/>
</svg>
