<svg width="18" height="22" viewBox="0 0 18 22" fill="none" xmlns="http://www.w3.org/2000/svg">
<path d="M9 21.5L2.67301 14.0382C2.58509 13.9262 2.49809 13.8135 2.41201 13.7C1.33179 12.276 0.747994 10.5373 0.750005 8.75C0.750005 6.56196 1.6192 4.46354 3.16637 2.91637C4.71355 1.36919 6.81197 0.5 9 0.5C11.188 0.5 13.2865 1.36919 14.8336 2.91637C16.3808 4.46354 17.25 6.56196 17.25 8.75C17.2517 10.5365 16.6682 12.2743 15.5888 13.6978L15.588 13.7C15.588 13.7 15.363 13.9955 15.3293 14.0353L9 21.5ZM3.60975 12.7963C3.60975 12.7963 3.7845 13.0272 3.82425 13.0767L9 19.181L14.1825 13.0685C14.2155 13.0272 14.391 12.7948 14.3918 12.794C15.2747 11.6309 15.7518 10.2103 15.75 8.75C15.75 6.95979 15.0388 5.2429 13.773 3.97703C12.5071 2.71116 10.7902 2 9 2C7.20979 2 5.4929 2.71116 4.22703 3.97703C2.96116 5.2429 2.25001 6.95979 2.25001 8.75C2.24815 10.2112 2.72584 11.6327 3.60975 12.7963Z" fill="white"/>
</svg>
